# xmcd CD database file
#
# Track frame offsets:
#	150
#	29599
#	43160
#	58240
#	74946
#	94046
#	120406
#	142641
#	160443
#	174859
#	196128
#	214631
#	237674
#	249503
#	272943
#	289398
#	311283
#	324105
#	344357
#
# Disc length: 4797 seconds
#
# Revision: 0
# Processed by: cddbd v1.5.2PL0 Copyright (c) Steve Scherf et al.
# Submitted via: CDex 1.51
#
DISCID=2012bb13
DTITLE=Chilled - 1991 - 2010 CD2
DYEAR=2010
DGENRE=New Age
TTITLE0=Chicane - salt water
TTITLE1=Kalliope - Lunar landings
TTITLE2=Basement Jaxx - Romeo
TTITLE3=DJ Sammy and Yanou Feat Do - Heaven
TTITLE4=Bassbossa - wicked game
TTITLE5=Afterlife - breather 2000
TTITLE6=Riccardo Eberspacher - freedom
TTITLE7=Cicada Feat Ben Onono - can't be doin' wtiht love
TTITLE8=Mylo - valley of the dolls
TTITLE9=Jakatta - the other world
TTITLE10=Peter, Bjorn and John feat Victoria Bergsman - young folks
TTITLE11=Fenomenon - sleepy meadows of Buxton
TTITLE12=Jose Gonzalez - heartbeats
TTITLE13=Stryke - ain't no sunshine
TTITLE14=Deep In - in a summer time
TTITLE15=Chicane - autumn tactics
TTITLE16=Sub Sub - past
TTITLE17=Black Mighty Orchestra - ocean beach
TTITLE18=Per7ume - Perfume
EXTD=YEAR: 2010
EXTT0=
EXTT1=
EXTT2=
EXTT3=
EXTT4=
EXTT5=
EXTT6=
EXTT7=
EXTT8=
EXTT9=
EXTT10=
EXTT11=
EXTT12=
EXTT13=
EXTT14=
EXTT15=
EXTT16=
EXTT17=
EXTT18=
PLAYORDER=
